<?xml version="1.0" standalone="no"?><!DOCTYPE svg PUBLIC "-//W3C//DTD SVG 1.1//EN" "http://www.w3.org/Graphics/SVG/1.1/DTD/svg11.dtd"><svg height="200" width="200" xmlns:xlink="http://www.w3.org/1999/xlink" t="1506957475786" class="icon" style="" viewBox="0 0 1024 1024" version="1.1" xmlns="http://www.w3.org/2000/svg" p-id="992"><defs><style type="text/css"></style></defs><path fill="#B8B7B8" d="M959.290145 936.925765l-894.580289 0 0-22.538342c0-136.284056 262.760735-247.059109 334.375868-261.123443 2.642179-5.372363 5.110396-17.733914 6.028303-29.877501-16.489573-18.127887-56.413904-67.136117-71.374655-130.779686-15.243184-7.076169-28.08569-22.277398-36.057253-43.680892-11.248193-30.052486-12.099585-71.548618 9.696859-98.412479-0.021489-0.480954-0.064468-0.873904-0.108471-1.353835-4.128021-37.652589-15.070245-137.724872 44.881231-203.290213 35.578345-38.963446 89.370536-58.794116 159.828308-58.794116 70.478238 0 124.293965 19.830671 159.892777 58.794116 59.9525 65.6953 48.967297 165.724604 44.816763 203.377194-0.044002 0.436952-0.086981 0.873904-0.130983 1.310857 21.796444 26.819859 20.966542 68.229009 9.740861 98.324474-7.994076 21.360515-20.834535 36.647702-36.101255 43.724894-14.960752 63.599567-54.885083 112.607797-71.353166 130.779686 0.916883 12.231591 3.386124 24.54914 6.049792 29.877501C696.506897 667.328315 959.268655 778.191372 959.268655 914.3864l0 22.538342L959.290145 936.924742 959.290145 936.925765zM959.290145 936.925765" p-id="993"></path></svg>